<?xml version="1.0" encoding="UTF-8"?>
<svg id="_圖層_1" data-name="圖層 1" xmlns="http://www.w3.org/2000/svg" version="1.1" viewBox="0 0 40 40">
  <defs>
    <style>
      .cls-1 {
        fill: #000;
        stroke-width: 0px;
      }
    </style>
  </defs>
  <path class="cls-1" d="M33.6,32.1c.3,2.2-.3,4.4-1.6,6.1-1,1.1-2.5,1.8-4.1,1.7h0c-1.2,0-2.3-.5-3-1.4-1.7-2.3-.3-6.5-.2-7,.1-.6.7-.9,1.3-.9l6.4.3c.6,0,1.1.5,1.2,1.1h0ZM15.7,18.5c.6-.2,1-.7,1-1.4-.1-2.1,0-4.1.6-6.1.9-3,.4-6.3-1.5-8.8C14.4.6,12.3-.2,10.1,0c-1.9.2-3.6,1.3-4.5,2.9-1.9,3.2-2.3,7-1,10.5.9,2.2,2,4.3,3.3,6.2.2.3.6.5,1,.5,0,0,.2,0,.3,0l6.5-1.5ZM16.3,19.6l-6.2,1.7c-.6.2-1,.7-.9,1.4.2,2.2,1.3,4.2,2.9,5.6.9.6,1.9,1,3,1,.4,0,.9,0,1.3-.2,1.2-.2,2.2-.9,2.7-2,1.1-2.6-1.1-6.4-1.4-6.8-.3-.5-.9-.7-1.4-.6h0ZM32.7,12.2c-1.3-1.4-3.2-2.1-5.1-1.9-2.1.3-4,1.5-5,3.4-1.3,2.9-1.1,6.2.5,8.9.9,1.8,1.6,3.8,1.9,5.8.1.6.6,1.1,1.3,1.1h6.7c0,0,0,0,0,0,.5,0,1-.3,1.2-.8.9-2.2,1.5-4.4,1.9-6.7.4-3.7-.8-7.3-3.3-10h0Z"/>
</svg>