<?xml version="1.0" encoding="UTF-8"?>
<svg id="_圖層_1" data-name="圖層 1" xmlns="http://www.w3.org/2000/svg" version="1.1" viewBox="0 0 40 40">
  <path d="M19.9,0c-.2,0-.5.1-.7.3L.6,14.3c-1.4,1,.1,3,1.5,2L20,2.8l18,13.5c1.3,1,2.8-1,1.5-2L20.8.3c-.2-.2-.5-.3-.8-.3h0ZM20,7c-.3,0-.5,0-.7.3L3.6,19c-.3.2-.5.6-.5,1v18.8c0,.7.6,1.2,1.3,1.2h10.6c.7,0,1.3-.6,1.3-1.2,0,0,0,0,0,0v-10s7.5,0,7.5,0v10c0,.7.6,1.2,1.2,1.2h10.6c.7,0,1.3-.6,1.3-1.2h0v-18.8c0-.4-.2-.8-.5-1l-15.6-11.7c-.2-.2-.5-.3-.8-.3h0Z" style="fill: #000; stroke-width: 0px;"/>
</svg>