<?xml version="1.0" encoding="UTF-8"?>
<svg id="_圖層_1" data-name="圖層 1" xmlns="http://www.w3.org/2000/svg" version="1.1" viewBox="0 0 40 40">
  <path d="M6.6,8.9c-.8,0-1.6.3-2.2.9l-.7.7c-.9.9-2.3.8-3.1,0-.8-.9-.8-2.2,0-3.1l.7-.7c3-3,7.8-3,10.7,0l1.3,1.3c1.2,1.2,3.2,1.2,4.4,0,0,0,0,0,0,0l1.3-1.3c3-3,7.8-3,10.7,0l1.3,1.3c1.2,1.2,3.2,1.2,4.4,0,0,0,0,0,0,0l.7-.7c.9-.9,2.3-.9,3.1,0,.9.9.9,2.3,0,3.1,0,0,0,0,0,0l-.7.7c-3,3-7.8,3-10.7,0l-1.3-1.3c-1.2-1.2-3.2-1.2-4.4,0,0,0,0,0,0,0l-1.3,1.3c-3,3-7.8,3-10.7,0l-1.3-1.3c-.6-.6-1.4-.9-2.2-.9ZM6.6,20c-.8,0-1.6.3-2.2.9l-.7.7c-.9.9-2.3.8-3.1,0-.8-.9-.8-2.2,0-3.1l.7-.7c3-3,7.8-3,10.7,0l1.3,1.3c1.2,1.2,3.2,1.2,4.4,0h0s1.3-1.3,1.3-1.3c3-3,7.8-3,10.7,0l1.3,1.3c1.2,1.2,3.2,1.2,4.4,0,0,0,0,0,0,0l.7-.7c.9-.9,2.3-.8,3.1,0,.8.9.8,2.2,0,3.1l-.7.7c-3,3-7.8,3-10.7,0l-1.3-1.3c-1.2-1.2-3.2-1.2-4.4,0h0s-1.3,1.3-1.3,1.3c-3,3-7.8,3-10.7,0l-1.3-1.3c-.6-.6-1.4-.9-2.2-.9ZM6.6,31.1c-.8,0-1.6.3-2.2.9l-.7.7c-.9.9-2.3.8-3.1,0-.8-.9-.8-2.2,0-3.1l.7-.7c3-3,7.8-3,10.7,0l1.3,1.3c1.2,1.2,3.2,1.2,4.4,0,0,0,0,0,0,0l1.3-1.3c3-3,7.8-3,10.7,0l1.3,1.3c1.2,1.2,3.2,1.2,4.4,0h0s.7-.7.7-.7c.9-.9,2.3-.8,3.1,0,.8.9.8,2.2,0,3.1l-.7.7c-3,3-7.8,3-10.7,0l-1.3-1.3c-1.2-1.2-3.2-1.2-4.4,0,0,0,0,0,0,0l-1.3,1.3c-3,3-7.8,3-10.7,0l-1.3-1.3c-.6-.6-1.4-.9-2.2-.9Z" style="fill: #111; fill-rule: evenodd; stroke-width: 0px;"/>
</svg>