<?xml version="1.0" encoding="UTF-8"?>
<svg id="_圖層_1" data-name="圖層 1" xmlns="http://www.w3.org/2000/svg" version="1.1" viewBox="0 0 40 40">
  <path d="M38.4,35.6h-2.8l-13.8-25.5,3.4-6.5c.4-.8.2-1.9-.6-2.4,0,0,0,0,0,0-.8-.5-1.7-.2-2.1.6,0,0,0,0,0,0l-2.5,4.8-2.5-4.8c-.4-.8-1.4-1.1-2.1-.7,0,0,0,0,0,0-.8.5-1,1.6-.6,2.4l3.4,6.5-13.8,25.5H1.6c-.9,0-1.6.8-1.6,1.8s.7,1.8,1.6,1.8h36.8c.9,0,1.6-.8,1.6-1.8s-.7-1.8-1.6-1.8ZM14.7,35.5c2.6-4.9,4.3-10.4,5.3-15,1,4.6,2.7,10.1,5.3,15h-10.6Z" style="fill: #000; stroke-width: 0px;"/>
</svg>