<?xml version="1.0" encoding="UTF-8"?>
<svg id="_圖層_1" data-name="圖層 1" xmlns="http://www.w3.org/2000/svg" version="1.1" viewBox="0 0 40 40">
  <path d="M21.6,2.2c-.5-.9-1.6-1.2-2.5-.7-.3.2-.6.4-.7.7l-6.4,11.9s0,0,0,0l1.4,1.2,1.4,1.2.7.6,3.9-1.4c.4-.1.9-.1,1.3,0l3.9,1.4.7-.5,1.4-1.2,1.4-1.2s0,0,0,0l-6.4-11.9ZM39.7,36l-10-18.6-1.4,1.2-1.4,1.2-.9.7c-.5.4-1.2.5-1.8.3l-4.2-1.6-4.2,1.6c-.6.2-1.3.1-1.8-.3l-.9-.7-1.4-1.2-1.4-1.2L.2,36.1c-.5.9-.1,2,.7,2.5.3.1.6.2.9.2h36.4c1,0,1.8-.8,1.8-1.8,0-.3,0-.7-.3-.9h0Z" style="fill: #000; stroke-width: 0px;"/>
</svg>